<svg width="14" height="14" viewBox="0 0 14 14" fill="none" xmlns="http://www.w3.org/2000/svg">
<path d="M0.999592 3.00001C1.26479 3.00007 1.5191 3.10546 1.70659 3.29301L6.29259 7.87901C6.48272 8.0615 6.73605 8.1634 6.99959 8.1634C7.26313 8.1634 7.51646 8.0615 7.70659 7.87901L12.2926 3.29301C12.4812 3.11085 12.7338 3.01006 12.996 3.01234C13.2582 3.01462 13.509 3.11978 13.6944 3.30519C13.8798 3.4906 13.985 3.74141 13.9873 4.00361C13.9895 4.26581 13.8888 4.51841 13.7066 4.70701L9.12059 9.29301C8.54897 9.83848 7.78921 10.1428 6.99909 10.1428C6.20897 10.1428 5.44921 9.83848 4.87759 9.29301L0.292592 4.70701C0.152782 4.56716 0.0575766 4.389 0.0190091 4.19504C-0.0195585 4.00109 0.000244741 3.80006 0.0759148 3.61736C0.151585 3.43466 0.279724 3.27849 0.444134 3.16861C0.608544 3.05873 0.801842 3.00005 0.999592 3.00001Z" fill="#666666"/>
</svg>
