<svg width="20" height="21" viewBox="0 0 20 21" fill="none" xmlns="http://www.w3.org/2000/svg">
<path d="M14.1718 12.0565C14.5354 11.6929 14.5873 11.1735 14.2757 10.6542C14.016 10.2387 13.5486 10.0309 13.0292 10.1348C12.8214 10.1867 12.6137 10.2906 12.4059 10.4464C10.7959 11.5371 8.61451 11.4852 7.00445 10.3945C6.90058 10.3425 6.7967 10.2906 6.69283 10.2387C6.12152 9.97897 5.55021 10.0829 5.23859 10.6022C4.87503 11.1216 4.92696 11.6929 5.39439 12.1603C5.49827 12.2642 5.60214 12.3162 5.65408 12.42L5.70602 12.472C6.43314 13.0433 7.31608 13.4068 8.4587 13.5626L7.78351 14.2378C7.2122 14.8091 6.58896 15.4324 6.01765 16.0037C5.86184 16.1595 5.65408 16.4192 5.65408 16.7828C5.65408 17.2502 5.91377 17.7176 6.38121 17.9254C6.53702 18.0292 6.69283 18.0292 6.84864 18.0292C7.10833 18.0292 7.41995 17.9254 7.6277 17.6657C8.40676 16.8866 9.03001 16.2634 9.65326 15.6401C9.70519 15.5882 9.70519 15.5882 9.70519 15.5882C9.70519 15.5882 9.75713 15.5882 9.75713 15.6401C10.1726 16.1076 10.6401 16.5231 11.0556 16.9905C11.2633 17.1983 11.4711 17.406 11.6788 17.6138C11.9385 17.8734 12.1462 17.9773 12.4579 17.9773C12.9253 18.0293 13.4447 17.7176 13.6524 17.2502C13.8602 16.8347 13.7563 16.3153 13.3927 16.0037C12.8734 15.4843 12.354 14.913 11.7827 14.3936L10.8997 13.5107C11.3672 13.4588 11.8866 13.3549 12.354 13.1471C13.1331 12.8875 13.7044 12.5239 14.1718 12.0565Z" fill="#798797"/>
<path d="M9.70519 10.6022C11.9385 10.6022 13.7563 8.83634 13.7563 6.60304C13.7563 5.51236 13.3408 4.47362 12.5617 3.69456C11.7827 2.9155 10.7959 2.5 9.75713 2.5C7.52383 2.5 5.75796 4.3178 5.70602 6.49917C5.70602 7.58985 6.12152 8.57666 6.90058 9.35572C7.6277 10.1867 8.61451 10.6022 9.70519 10.6022ZM8.56257 5.40849C8.87419 5.09687 9.28969 4.94105 9.70519 4.94105C10.6401 4.94105 11.3152 5.66817 11.3152 6.55111C11.3152 7.48598 10.5881 8.16116 9.70519 8.16116C8.77032 8.16116 8.09514 7.43404 8.09514 6.55111C8.09514 6.13561 8.25095 5.72011 8.56257 5.40849Z" fill="#798797"/>
<path d="M14.1718 12.0565C14.5354 11.6929 14.5873 11.1735 14.2757 10.6542C14.016 10.2387 13.5486 10.0309 13.0292 10.1348C12.8214 10.1867 12.6137 10.2906 12.4059 10.4464C10.7959 11.5371 8.61451 11.4852 7.00445 10.3945C6.90058 10.3425 6.7967 10.2906 6.69283 10.2387C6.12152 9.97897 5.55021 10.0829 5.23859 10.6022C4.87503 11.1216 4.92696 11.6929 5.39439 12.1603C5.49827 12.2642 5.60214 12.3162 5.65408 12.42L5.70602 12.472C6.43314 13.0433 7.31608 13.4068 8.4587 13.5626L7.78351 14.2378C7.2122 14.8091 6.58896 15.4324 6.01765 16.0037C5.86184 16.1595 5.65408 16.4192 5.65408 16.7828C5.65408 17.2502 5.91377 17.7176 6.38121 17.9254C6.53702 18.0292 6.69283 18.0292 6.84864 18.0292C7.10833 18.0292 7.41995 17.9254 7.6277 17.6657C8.40676 16.8866 9.03001 16.2634 9.65326 15.6401C9.70519 15.5882 9.70519 15.5882 9.70519 15.5882C9.70519 15.5882 9.75713 15.5882 9.75713 15.6401C10.1726 16.1076 10.6401 16.5231 11.0556 16.9905C11.2633 17.1983 11.4711 17.406 11.6788 17.6138C11.9385 17.8734 12.1462 17.9773 12.4579 17.9773C12.9253 18.0293 13.4447 17.7176 13.6524 17.2502C13.8602 16.8347 13.7563 16.3153 13.3927 16.0037C12.8734 15.4843 12.354 14.913 11.7827 14.3936L10.8997 13.5107C11.3672 13.4588 11.8866 13.3549 12.354 13.1471C13.1331 12.8875 13.7044 12.5239 14.1718 12.0565Z" fill="#798797"/>
</svg>
