<svg width="20" height="21" viewBox="0 0 20 21" fill="none" xmlns="http://www.w3.org/2000/svg">
<path d="M17.3232 14.0355C17.3232 13.978 17.2657 13.978 17.2657 13.9205C17.0356 13.4603 16.5179 12.8851 15.8276 12.2523C15.4825 11.9647 15.3099 11.7346 15.1949 11.6195C15.0223 11.3895 15.0223 11.2169 15.0798 10.9868C15.1374 10.8142 15.3674 10.5266 15.7701 10.0089C16.0002 9.72128 16.1152 9.54872 16.2878 9.37615C17.1507 8.22569 17.5533 7.47789 17.4383 7.13275L17.3808 7.07523C17.3232 7.01771 17.2657 6.96019 17.1507 6.96019C17.0356 6.90266 16.8631 6.90266 16.6905 6.96019H14.5046C14.4471 6.96019 14.4471 6.96019 14.332 6.96019C14.2745 6.96019 14.217 6.96019 14.217 6.96019H14.1595H14.1019L14.0444 7.0177C13.9869 7.07523 13.9869 7.07522 13.9869 7.13275C13.7568 7.7655 13.4692 8.28321 13.1816 8.85844C13.009 9.14605 12.8364 9.43367 12.6639 9.66377C12.4913 9.89386 12.3762 10.0664 12.2612 10.1815C12.1462 10.2965 12.0311 10.354 11.9736 10.4691C11.9161 10.5266 11.801 10.5841 11.801 10.5266C11.7435 10.5266 11.686 10.5266 11.686 10.4691C11.6284 10.4116 11.5709 10.354 11.5134 10.2965C11.4559 10.239 11.4559 10.1239 11.3984 10.0089C11.3984 9.89385 11.3984 9.77881 11.3984 9.72128C11.3984 9.66376 11.3984 9.4912 11.3984 9.37615C11.3984 9.20358 11.3984 9.08853 11.3984 9.03101C11.3984 8.85844 11.3984 8.62835 11.3984 8.39826C11.3984 8.16817 11.3984 7.9956 11.3984 7.88055C11.3984 7.7655 11.3984 7.59294 11.3984 7.47789C11.3984 7.30532 11.3984 7.19027 11.3984 7.13275C11.3984 7.07522 11.3408 6.96018 11.3408 6.90266C11.2833 6.84514 11.2258 6.78761 11.1683 6.73009C11.1107 6.67257 10.9957 6.67257 10.9382 6.61504C10.6506 6.55752 10.3054 6.5 9.90277 6.5C8.9824 6.5 8.34965 6.55752 8.11955 6.67257C8.00451 6.73009 7.88946 6.78761 7.83194 6.90266C7.71689 7.01771 7.71689 7.07523 7.77441 7.07523C8.06203 7.13275 8.29212 7.24779 8.40717 7.42036L8.4647 7.53542C8.52222 7.59294 8.52221 7.70798 8.57973 7.88055C8.63726 8.05312 8.63726 8.22569 8.63726 8.45578C8.63726 8.80092 8.63726 9.14606 8.63726 9.37615C8.63726 9.66377 8.57973 9.83633 8.57973 10.0089C8.57973 10.1815 8.52222 10.2965 8.4647 10.354C8.40717 10.4691 8.40717 10.5266 8.34964 10.5266C8.34964 10.5266 8.34964 10.5841 8.29212 10.5841C8.23459 10.5841 8.17707 10.6417 8.06203 10.6417C8.00451 10.6417 7.88946 10.5841 7.83194 10.5266C7.71689 10.4691 7.60185 10.354 7.54432 10.239C7.42928 10.124 7.31423 9.95138 7.19918 9.72128C7.08414 9.49119 6.91156 9.2611 6.79651 8.91597L6.68148 8.68588C6.62396 8.57083 6.50891 8.34073 6.39386 8.05312C6.27882 7.7655 6.16377 7.53542 6.04872 7.2478C5.9912 7.13276 5.93368 7.07523 5.87616 7.0177H5.81863C5.81863 7.0177 5.7611 6.96019 5.70358 6.96019C5.64606 6.96019 5.58854 6.90266 5.53102 6.90266H3.46019C3.23009 6.90266 3.11505 6.96018 3.05753 7.0177L3 7.07523C3 7.07523 3 7.13275 3 7.19027C3 7.2478 3 7.30532 3.05753 7.42036C3.34514 8.11064 3.69028 8.80092 4.03542 9.4912C4.38055 10.1239 4.7257 10.6992 4.95579 11.1018C5.2434 11.5045 5.47349 11.9072 5.76111 12.2523C6.04872 12.5974 6.22129 12.8275 6.27881 12.9426C6.39386 13.0576 6.45138 13.1151 6.5089 13.1727L6.68148 13.3452C6.79653 13.4603 6.96909 13.6329 7.19918 13.8054C7.42928 13.978 7.71689 14.1506 8.0045 14.3231C8.29212 14.4957 8.63726 14.6107 8.9824 14.7258C9.38506 14.8408 9.7302 14.8984 10.0753 14.8408H10.9382C11.1107 14.8408 11.2258 14.7833 11.3408 14.6683L11.3984 14.6107C11.3984 14.5532 11.4559 14.5532 11.4559 14.4957C11.4559 14.4382 11.4559 14.3807 11.4559 14.2656C11.4559 14.0355 11.4559 13.8629 11.5134 13.6904C11.5709 13.5178 11.5709 13.4028 11.6285 13.2877C11.686 13.1727 11.7435 13.1151 11.801 13.0576C11.8585 13.0001 11.9161 12.9426 11.9161 12.9426H11.9736C12.0886 12.8851 12.2612 12.9426 12.3763 13.0576C12.5488 13.1727 12.7214 13.3452 12.8364 13.5178C12.9515 13.6904 13.1241 13.8629 13.3542 14.093C13.5842 14.3231 13.7568 14.4957 13.8719 14.5532L14.0444 14.6683C14.1595 14.7258 14.2745 14.7833 14.4471 14.8408C14.6197 14.8984 14.7347 14.8984 14.8497 14.8984L16.8055 14.8408C16.9781 14.8408 17.1507 14.7833 17.2657 14.7258C17.3808 14.6683 17.4383 14.6107 17.4383 14.4957C17.4383 14.4382 17.4383 14.3231 17.4383 14.2656C17.3232 14.1506 17.3232 14.093 17.3232 14.0355Z" fill="#798797"/>
</svg>
