<svg width="20" height="21" viewBox="0 0 20 21" fill="none" xmlns="http://www.w3.org/2000/svg">
<path d="M17 9.41313C17 9.02525 16.9489 8.57273 16.9489 8.05556C16.8978 7.53838 16.8467 7.02121 16.7956 6.56869C16.6934 6.05151 16.5401 5.66364 16.2336 5.34041C15.9781 5.01717 15.6204 4.82323 15.2628 4.75858C14.0876 4.56464 12.3504 4.5 10 4.5C7.64964 4.5 5.86131 4.56464 4.73722 4.75858C4.37956 4.82323 4.0219 5.01717 3.76642 5.34041C3.51095 5.66364 3.30657 6.05151 3.20438 6.56869C3.10219 7.02121 3.0511 7.47374 3.0511 8.05556C3 8.57273 3 9.02525 3 9.41313C3 9.801 3 10.2535 3 10.9C3 11.5465 3 12.0636 3 12.3869C3 12.7747 3.0511 13.2273 3.0511 13.7444C3.10219 14.2616 3.15328 14.7788 3.20438 15.2313C3.30657 15.7485 3.45985 16.1364 3.76642 16.4596C4.0219 16.7828 4.37956 16.9768 4.73722 17.0414C5.91241 17.2354 7.64964 17.3 10 17.3C12.3504 17.3 14.1387 17.2354 15.2628 17.0414C15.6204 16.9768 15.9781 16.7828 16.2336 16.4596C16.4891 16.1364 16.6934 15.7485 16.7956 15.2313C16.8978 14.7788 16.9489 14.3263 16.9489 13.7444C17 13.2273 17 12.7747 17 12.3869C17 11.999 17 11.5465 17 10.9C17 10.2535 17 9.73636 17 9.41313ZM12.708 11.4172L8.67154 14.5848C8.62044 14.6495 8.51825 14.7141 8.41606 14.7141C8.31387 14.7141 8.26278 14.7141 8.16059 14.6495C8.0073 14.5202 7.90511 14.3263 7.90511 14.0677V7.66767C7.90511 7.40909 8.0073 7.21515 8.16059 7.08586C8.31387 6.95657 8.51825 6.95657 8.67154 7.08586L12.708 10.2535C12.8613 10.3828 12.9635 10.5768 12.9635 10.7707C12.9635 10.9646 12.8613 11.2879 12.708 11.4172Z" fill="#748191"/>
</svg>
