<svg width="476" height="414" viewBox="0 0 476 414" fill="none" xmlns="http://www.w3.org/2000/svg">
<rect x="67.2744" y="0.313019" width="406.11" height="293.457" rx="2.16963" fill="#FAFAFA"/>
<rect width="405.127" height="136.266" rx="2.16963" transform="matrix(1 0 -0.496279 0.868163 68.2197 294.059)" fill="#C4C4C4"/>
<rect width="136.246" height="294.574" rx="2.16963" transform="matrix(0.496279 -0.868163 0 1 0.676758 118.284)" fill="#F0F0F0"/>
<path fill-rule="evenodd" clip-rule="evenodd" d="M19.509 401.536C18.9372 402.536 19.4076 403.347 20.5598 403.347H196.961C198.114 403.347 199.511 402.536 200.083 401.536L253.757 307.642C254.328 306.642 253.858 305.831 252.706 305.831C252.621 305.831 252.535 305.835 252.449 305.844C252.375 305.836 252.297 305.832 252.216 305.832H231.197C231.18 305.832 231.163 305.831 231.145 305.831H97.8641C96.712 305.831 95.3144 306.642 94.7426 307.643L48.3644 388.774C47.7926 389.774 48.2631 390.585 49.4153 390.585H182.697C183.849 390.585 185.246 389.774 185.818 388.774L224.901 320.405C225.473 319.405 225.002 318.594 223.85 318.594C223.775 318.594 223.7 318.597 223.624 318.604C223.54 318.594 223.452 318.588 223.359 318.588H111.148C109.996 318.588 108.599 319.399 108.027 320.399L76.2394 376.006C75.6676 377.007 76.1381 377.818 77.2903 377.818H169.411C170.563 377.818 171.961 377.007 172.533 376.006L197.025 333.162C197.596 332.161 197.126 331.351 195.974 331.351C195.8 331.351 195.621 331.369 195.44 331.404C195.305 331.373 195.156 331.357 194.994 331.357H125.413C124.261 331.357 122.863 332.168 122.291 333.168L105.095 363.251C104.523 364.251 104.994 365.062 106.146 365.062H155.146C156.298 365.062 157.696 364.251 158.268 363.251C158.84 362.25 158.369 361.439 157.217 361.439H110.303L125.428 334.979H191.813L169.396 374.195H81.4471L111.164 322.211H219.696L182.681 386.963H53.5721L97.8797 309.454H229.024C229.041 309.454 229.058 309.454 229.075 309.454H248.548L196.946 399.725H24.7167L83.6151 296.691H255.162C256.314 296.691 257.711 295.88 258.283 294.88C258.855 293.879 258.385 293.069 257.232 293.069H83.5996C82.4474 293.069 81.0499 293.879 80.4781 294.88L19.509 401.536Z" fill="#666666"/>
<path fill-rule="evenodd" clip-rule="evenodd" d="M204.15 411.565C203.578 412.565 202.18 413.376 201.028 413.376H2.08618C0.934021 413.376 0.463533 412.565 1.03533 411.565L63.5421 302.219C64.1139 301.219 65.5114 300.408 66.6636 300.408H244.727C245.879 300.408 246.349 301.219 245.778 302.219L193.172 394.245C192.6 395.245 191.202 396.056 190.05 396.056H34.5272C33.3751 396.056 32.9046 395.245 33.4764 394.245L79.3335 314.025C79.3765 313.95 79.4242 313.876 79.476 313.803C79.5083 313.727 79.5467 313.649 79.5917 313.571C80.1635 312.571 81.561 311.76 82.7132 311.76H103.694C103.722 311.759 103.751 311.758 103.779 311.758H217.46C218.613 311.758 219.083 312.569 218.511 313.569L178.907 382.85C178.336 383.85 176.938 384.661 175.786 384.661H62.1048C60.9526 384.661 60.4821 383.85 61.0539 382.85L93.3623 326.332C93.9341 325.331 95.3317 324.52 96.4839 324.52C96.5167 324.52 96.549 324.521 96.5807 324.522H192.528C193.68 324.522 194.151 325.333 193.579 326.334L169.087 369.178C168.515 370.179 167.118 370.989 165.966 370.989H89.5334C88.3812 370.989 87.9107 370.179 88.4825 369.178L103.977 342.072C104.091 341.874 104.237 341.682 104.408 341.503C104.44 341.319 104.514 341.121 104.631 340.915C105.203 339.915 106.601 339.104 107.753 339.104H166.554C167.706 339.104 168.176 339.915 167.604 340.915L159.267 355.5C158.695 356.501 157.297 357.312 156.145 357.312H118.486C117.334 357.312 116.863 356.501 117.435 355.5C118.007 354.5 119.405 353.689 120.557 353.689H156.13L162.397 342.726H107.776L93.6902 367.367H165.95L188.371 328.145H96.4983L66.2616 381.039H175.77L213.304 315.38H101.754C101.726 315.381 101.697 315.382 101.669 315.382H82.7301L38.6841 392.434H190.035L240.57 304.03H66.6791L6.24302 409.754H201.013L262.484 302.219C263.056 301.219 264.453 300.408 265.605 300.408C266.758 300.408 267.228 301.219 266.656 302.219L204.15 411.565Z" fill="#BB8E34"/>
<path fill-rule="evenodd" clip-rule="evenodd" d="M400.069 401.536C399.497 402.536 398.099 403.347 396.947 403.347H220.545C219.393 403.347 218.923 402.536 219.494 401.536L273.168 307.642C273.74 306.642 275.137 305.831 276.29 305.831C276.374 305.831 276.454 305.835 276.531 305.844C276.614 305.836 276.695 305.832 276.776 305.832H297.797C297.814 305.832 297.832 305.831 297.849 305.831H431.13C432.282 305.831 432.753 306.642 432.181 307.643L385.803 388.774C385.231 389.774 383.834 390.585 382.681 390.585H249.4C248.248 390.585 247.777 389.774 248.349 388.774L287.432 320.405C288.004 319.405 289.401 318.594 290.554 318.594C290.627 318.594 290.697 318.597 290.765 318.603C290.859 318.593 290.952 318.588 291.043 318.588H403.254C404.406 318.588 404.877 319.399 404.305 320.399L372.518 376.006C371.946 377.007 370.548 377.818 369.396 377.818H277.275C276.123 377.818 275.653 377.007 276.224 376.006L300.716 333.162C301.288 332.161 302.686 331.351 303.838 331.351C304.013 331.351 304.173 331.369 304.315 331.405C304.487 331.373 304.656 331.357 304.821 331.357H374.402C375.554 331.357 376.024 332.168 375.452 333.168L358.256 363.251C357.684 364.251 356.287 365.062 355.135 365.062H306.134C304.982 365.062 304.511 364.251 305.083 363.251C305.655 362.25 307.053 361.439 308.205 361.439H355.119L370.245 334.979H303.85L281.432 374.195H369.381L399.097 322.211H290.572L253.557 386.963H382.666L426.973 309.454H295.827C295.81 309.454 295.792 309.454 295.775 309.454H276.305L224.702 399.725H396.931L455.833 296.686L279.278 296.267C278.127 296.264 277.66 295.451 278.235 294.451C278.81 293.451 280.209 292.642 281.36 292.645L459.992 293.069C461.141 293.071 461.608 293.881 461.038 294.88L400.069 401.536Z" fill="#666666"/>
<path fill-rule="evenodd" clip-rule="evenodd" d="M203.962 411.565C203.39 412.565 203.861 413.376 205.013 413.376H403.955C405.107 413.376 406.505 412.565 407.076 411.565L469.583 302.219C470.155 301.219 469.684 300.408 468.532 300.408H290.469C289.317 300.408 287.919 301.219 287.348 302.219L234.742 394.245C234.17 395.245 234.641 396.056 235.793 396.056H391.316C392.468 396.056 393.865 395.245 394.437 394.245L440.294 314.025C440.337 313.95 440.375 313.875 440.406 313.802C440.46 313.726 440.51 313.649 440.555 313.571C441.127 312.571 440.656 311.76 439.504 311.76H418.515C418.487 311.759 418.459 311.758 418.431 311.758H304.75C303.598 311.758 302.2 312.569 301.628 313.569L262.025 382.85C261.453 383.85 261.923 384.661 263.075 384.661H376.757C377.909 384.661 379.306 383.85 379.878 382.85L412.147 326.401C412.153 326.391 412.16 326.38 412.166 326.369C412.173 326.357 412.18 326.346 412.187 326.334C412.391 325.976 412.462 325.643 412.417 325.362C412.336 324.856 411.877 324.52 411.136 324.52C411.103 324.52 411.07 324.521 411.037 324.522H315.095C313.943 324.522 312.545 325.333 311.973 326.334L287.482 369.178C286.91 370.179 287.38 370.989 288.532 370.989H364.965C366.117 370.989 367.514 370.179 368.086 369.178L383.581 342.072C383.694 341.875 383.766 341.685 383.8 341.507C383.981 341.322 384.135 341.122 384.253 340.915C384.825 339.915 384.354 339.104 383.202 339.104H324.402C323.25 339.104 321.852 339.915 321.28 340.915L312.943 355.5C312.371 356.501 312.841 357.312 313.993 357.312H351.653C352.805 357.312 354.202 356.501 354.774 355.5C355.346 354.5 354.875 353.689 353.723 353.689H318.15L324.417 342.726H379.035L364.949 367.367H292.689L315.111 328.145H406.978L376.741 381.039H267.232L304.765 315.38H416.324C416.351 315.381 416.379 315.382 416.407 315.382H435.346L391.3 392.434H239.95L290.485 304.03H464.375L403.939 409.754H209.17L270.641 302.219C271.213 301.219 270.742 300.408 269.59 300.408C268.438 300.408 267.041 301.219 266.469 302.219L203.962 411.565Z" fill="#BB8E34"/>
<path d="M256.415 271.52V294.468" stroke="#666666" stroke-width="3.47697" stroke-linecap="round"/>
<path d="M259.196 217.28V249.268" stroke="#666666" stroke-width="3.47697" stroke-linecap="round"/>
<path d="M264.759 270.129V302.118" stroke="#BB8E34" stroke-width="3.47697" stroke-linecap="round"/>
<path d="M264.759 217.28V257.613" stroke="#BB8E34" stroke-width="3.47697" stroke-linecap="round"/>
<path d="M268.931 270.129V300.727" stroke="#BB8E34" stroke-width="3.47697" stroke-linecap="round"/>
<path d="M268.931 215.887V256.22" stroke="#BB8E34" stroke-width="3.47697" stroke-linecap="round"/>
<path d="M278.669 270.129V294.468" stroke="#666666" stroke-width="3.47697" stroke-linecap="round"/>
<path d="M278.669 217.28V249.268" stroke="#666666" stroke-width="3.47697" stroke-linecap="round"/>
<g clip-path="url(#clip0_3448_2111)">
<path d="M328.037 198.5H221.642V217.276L328.037 217.276V198.5Z" fill="#BB8E34" stroke="#666666" stroke-width="0.695395" stroke-miterlimit="10" stroke-linejoin="round"/>
<path d="M328.56 198.529H221.838L229.492 194.061L334.149 193.695L328.56 198.529Z" fill="#DAA53B" stroke="#666666" stroke-width="0.695395" stroke-miterlimit="10" stroke-linejoin="round"/>
<path d="M334.15 212.356L328.34 217.176V198.52L334.15 193.701V212.356Z" fill="#916D26" stroke="#666666" stroke-width="0.695395" stroke-miterlimit="10"/>
</g>
<path d="M334.298 202.678H382.975V122.708" stroke="#BB8E34" stroke-width="2.16963" stroke-linejoin="round" stroke-dasharray="5.56 11.13"/>
<path d="M334.298 208.937H395.493V121.317" stroke="#BB8E34" stroke-width="2.16963" stroke-linejoin="round" stroke-dasharray="5.56 11.13"/>
<g clip-path="url(#clip1_3448_2111)">
<path d="M328.037 254.134L221.642 254.829V272.909L328.037 272.909V254.134Z" fill="#868686" stroke="#666666" stroke-width="0.695395" stroke-miterlimit="10" stroke-linejoin="round"/>
<path d="M328.56 254.162H221.838L229.492 249.694L334.149 249.328L328.56 254.162Z" fill="#979696" stroke="#666666" stroke-width="0.695395" stroke-miterlimit="10" stroke-linejoin="round"/>
<path d="M334.15 267.988L328.34 272.807V254.151L334.15 249.332V267.988Z" fill="#535252" stroke="#666666" stroke-width="0.695395" stroke-miterlimit="10"/>
</g>
<g clip-path="url(#clip2_3448_2111)">
<path d="M447.763 94.0386H334.453V122.015H447.648L447.763 94.0386Z" fill="#BB8E34" fill-opacity="0.4" stroke="#666666" stroke-width="1.39079" stroke-miterlimit="10" stroke-linejoin="round"/>
<path d="M447.817 94.0365H334.508L342.634 87.2028L453.751 86.6433L447.817 94.0365Z" fill="#DAA53B" fill-opacity="0.4" stroke="#666666" stroke-width="0.695395" stroke-miterlimit="10" stroke-linejoin="round"/>
<path d="M453.75 115.181L447.581 122.449V94.02L453.75 86.6492V115.181Z" fill="#906D26" fill-opacity="0.4" stroke="#666666" stroke-width="0.695395" stroke-miterlimit="10"/>
</g>
<g clip-path="url(#clip3_3448_2111)">
<path d="M178.14 105.707L118.727 106.012V154.69H178.53L178.14 105.707Z" fill="#E1CFAB" stroke="#666666" stroke-width="1.39079" stroke-miterlimit="10" stroke-linejoin="round"/>
<path d="M178.198 106.012H118.727L122.992 99.5847L181.312 99.0584L178.198 106.012Z" fill="#EDD8AE" stroke="#666666" stroke-width="0.695395" stroke-miterlimit="10" stroke-linejoin="round"/>
<path d="M181.232 146.344L178.531 154.689L178.004 106.358L181.232 99.2065V146.344Z" fill="#D0C2A5" stroke="#666666" stroke-width="0.695395" stroke-miterlimit="10"/>
</g>
<circle cx="172.048" cy="145.817" r="11.9882" fill="#666666"/>
<circle cx="171.052" cy="145.817" r="11.9882" fill="#666666"/>
<circle cx="171.052" cy="145.817" r="11.9186" fill="#BB8E34" stroke="#666666" stroke-width="0.139079"/>
<path d="M275.884 227.53H292.573V251.372C286.065 253.862 282.411 253.845 275.884 251.372V227.53Z" fill="#757575"/>
<ellipse cx="284.229" cy="227.531" rx="8.34473" ry="1.90737" fill="#BB8E34"/>
<path d="M236.946 171.899H246.682V195.741C242.886 198.231 240.754 198.214 236.946 195.741V171.899Z" fill="#757575"/>
<ellipse cx="241.814" cy="171.9" rx="4.86776" ry="1.90737" fill="#BB8E34"/>
<path d="M268.931 171.899H278.666V195.741C274.87 198.231 272.738 198.214 268.931 195.741V171.899Z" fill="#757575"/>
<ellipse cx="273.798" cy="171.9" rx="4.86776" ry="1.90737" fill="#BB8E34"/>
<path d="M298.138 227.53H314.827V251.372C308.319 253.862 304.665 253.845 298.138 251.372V227.53Z" fill="#757575"/>
<ellipse cx="306.482" cy="227.531" rx="8.34473" ry="1.90737" fill="#BB8E34"/>
<path d="M217.836 141.79C220.677 138.949 222.906 135.551 224.394 131.789C225.882 128.027 226.601 123.976 226.51 119.867C226.418 115.757 225.519 111.67 223.862 107.839C222.205 104.007 219.823 100.506 216.853 97.5357" stroke="#666666" stroke-width="2.78158" stroke-linecap="round" stroke-linejoin="round"/>
<path d="M210.954 134.902C213.02 132.836 214.66 130.383 215.778 127.683C216.896 124.983 217.472 122.089 217.472 119.167C217.472 116.245 216.896 113.351 215.778 110.651C214.66 107.952 213.02 105.499 210.954 103.432" stroke="#666666" stroke-width="2.78158" stroke-linecap="round" stroke-linejoin="round"/>
<path d="M223.739 147.686C227.485 143.941 230.455 139.495 232.482 134.601C234.509 129.708 235.552 124.463 235.552 119.167C235.552 113.87 234.509 108.625 232.482 103.732C230.455 98.8385 227.485 94.3922 223.739 90.647" stroke="#666666" stroke-width="2.78158" stroke-linecap="round" stroke-linejoin="round"/>
<path d="M230.622 154.572C235.271 149.922 238.959 144.403 241.476 138.328C243.992 132.254 245.287 125.743 245.287 119.168C245.287 112.593 243.992 106.082 241.476 100.008C238.959 93.933 235.271 88.4135 230.622 83.7642" stroke="#666666" stroke-width="2.78158" stroke-linecap="round" stroke-linejoin="round"/>
<circle cx="203.087" cy="119.167" r="5.56316" transform="rotate(45 203.087 119.167)" fill="#666666"/>
<path d="M436.995 57.6346C437.993 56.6366 438.775 55.4429 439.298 54.1216C439.821 52.8004 440.074 51.3774 440.041 49.934C440.009 48.4906 439.693 47.055 439.111 45.7092C438.529 44.3634 437.693 43.1337 436.649 42.0904" stroke="#666666" stroke-width="1.39079" stroke-linecap="round" stroke-linejoin="round"/>
<path d="M434.571 55.2241C435.297 54.4983 435.873 53.6367 436.266 52.6884C436.658 51.7401 436.861 50.7237 436.861 49.6973C436.861 48.6708 436.658 47.6545 436.266 46.7062C435.873 45.7579 435.297 44.8962 434.571 44.1704" stroke="#666666" stroke-width="1.39079" stroke-linecap="round" stroke-linejoin="round"/>
<path d="M439.067 59.7091C440.383 58.3936 441.426 56.8319 442.138 55.1131C442.85 53.3943 443.217 51.5521 443.217 49.6917C443.217 47.8313 442.85 45.9891 442.138 44.2704C441.426 42.5516 440.383 40.9898 439.067 39.6743" stroke="#666666" stroke-width="1.39079" stroke-linecap="round" stroke-linejoin="round"/>
<path d="M441.481 62.129C443.114 60.496 444.41 58.5573 445.294 56.4237C446.177 54.29 446.632 52.0031 446.632 49.6937C446.632 47.3842 446.177 45.0974 445.294 42.9637C444.41 40.8301 443.114 38.8914 441.481 37.2583" stroke="#666666" stroke-width="1.39079" stroke-linecap="round" stroke-linejoin="round"/>
<path d="M419.378 57.6228C418.38 56.6249 417.598 55.4312 417.075 54.1099C416.552 52.7887 416.3 51.3657 416.332 49.9223C416.364 48.4789 416.68 47.0433 417.262 45.6975C417.844 44.3516 418.68 43.122 419.724 42.0786" stroke="#666666" stroke-width="1.39079" stroke-linecap="round" stroke-linejoin="round"/>
<path d="M421.802 55.2124C421.076 54.4866 420.5 53.6249 420.107 52.6766C419.715 51.7283 419.512 50.712 419.512 49.6855C419.512 48.6591 419.715 47.6427 420.107 46.6945C420.5 45.7462 421.076 44.8845 421.802 44.1587" stroke="#666666" stroke-width="1.39079" stroke-linecap="round" stroke-linejoin="round"/>
<path d="M417.306 59.6974C415.99 58.3819 414.947 56.8201 414.235 55.1014C413.523 53.3826 413.156 51.5404 413.156 49.68C413.156 47.8196 413.523 45.9774 414.235 44.2586C414.947 42.5399 415.99 40.9781 417.306 39.6626" stroke="#666666" stroke-width="1.39079" stroke-linecap="round" stroke-linejoin="round"/>
<path d="M414.892 62.1173C413.259 60.4843 411.963 58.5456 411.079 56.4119C410.196 54.2783 409.741 51.9914 409.741 49.682C409.741 47.3725 410.196 45.0857 411.079 42.952C411.963 40.8183 413.259 38.8796 414.892 37.2466" stroke="#666666" stroke-width="1.39079" stroke-linecap="round" stroke-linejoin="round"/>
<circle cx="428.776" cy="49.1118" r="4.83782" transform="rotate(-45 428.776 49.1118)" fill="#666666"/>
<path d="M427.508 48.6132C427.706 46.9826 430.071 46.9825 430.269 48.6132L433.517 75.3333C433.617 76.1619 432.971 76.8919 432.136 76.8919H425.641C424.806 76.8919 424.159 76.1619 424.26 75.3333L427.508 48.6132Z" fill="#666666"/>
<path d="M102.618 87.8786C102.16 87.3 101.774 86.6612 101.461 85.9621C101.147 85.275 100.888 84.5699 100.683 83.8467C100.49 83.1114 100.346 82.3761 100.249 81.6409C100.165 80.8936 100.123 80.1824 100.123 79.5074C100.123 78.8445 100.165 78.1454 100.249 77.4101C100.346 76.6748 100.49 75.9396 100.683 75.2043C100.888 74.457 101.147 73.7277 101.461 73.0166C101.786 72.3054 102.184 71.6425 102.654 71.0278L104.1 71.8414C103.775 72.4079 103.498 73.0106 103.269 73.6494C103.04 74.2762 102.847 74.921 102.69 75.584C102.545 76.2469 102.437 76.9159 102.365 77.5909C102.304 78.2538 102.274 78.8927 102.274 79.5074C102.274 80.086 102.31 80.7067 102.383 81.3697C102.455 82.0326 102.564 82.7016 102.708 83.3766C102.853 84.0395 103.04 84.6844 103.269 85.3112C103.51 85.938 103.793 86.5045 104.118 87.0107L102.618 87.8786ZM106.005 81.9844H108.066V74.8789L108.301 73.6494L107.56 74.7161L106.366 75.6382L105.372 74.4269L108.861 71.0278H110.127V81.9844H112.152V83.9009H106.005V81.9844ZM114.874 71.0278C115.332 71.6063 115.717 72.2452 116.031 72.9443C116.344 73.6313 116.597 74.3425 116.79 75.0777C116.995 75.801 117.14 76.5362 117.224 77.2835C117.321 78.0188 117.369 78.7239 117.369 79.3989C117.369 80.0619 117.321 80.761 117.224 81.4962C117.14 82.2315 116.995 82.9728 116.79 83.7201C116.597 84.4554 116.338 85.1786 116.013 85.8897C115.699 86.6009 115.308 87.2638 114.838 87.8786L113.373 87.0469C113.735 86.4442 114.03 85.8234 114.259 85.1846C114.5 84.5458 114.687 83.9009 114.819 83.25C114.964 82.5991 115.067 81.9482 115.127 81.2974C115.187 80.6465 115.217 80.0137 115.217 79.3989C115.217 78.8204 115.181 78.1996 115.109 77.5367C115.036 76.8617 114.922 76.1927 114.765 75.5297C114.609 74.8548 114.416 74.2039 114.187 73.5771C113.958 72.9503 113.686 72.3778 113.373 71.8595L114.874 71.0278Z" fill="#BB8E34"/>
<path d="M389.122 75.3629C388.664 74.7844 388.278 74.1455 387.965 73.4464C387.651 72.7594 387.392 72.0543 387.187 71.331C386.994 70.5958 386.85 69.8605 386.753 69.1253C386.669 68.3779 386.627 67.6668 386.627 66.9918C386.627 66.3288 386.669 65.6297 386.753 64.8945C386.85 64.1592 386.994 63.4239 387.187 62.6887C387.392 61.9414 387.651 61.2121 387.965 60.501C388.29 59.7898 388.688 59.1269 389.158 58.5121L390.604 59.3258C390.279 59.8923 390.002 60.4949 389.773 61.1338C389.544 61.7606 389.351 62.4054 389.194 63.0684C389.049 63.7313 388.941 64.4003 388.869 65.0753C388.808 65.7382 388.778 66.3771 388.778 66.9918C388.778 67.5703 388.814 68.1911 388.887 68.854C388.959 69.517 389.067 70.186 389.212 70.861C389.357 71.5239 389.544 72.1688 389.773 72.7955C390.014 73.4223 390.297 73.9888 390.622 74.4951L389.122 75.3629ZM398.204 61.7666C398.204 62.3934 398.113 63.0382 397.933 63.7012C397.752 64.3521 397.517 64.9909 397.227 65.6177C396.95 66.2445 396.643 66.8411 396.305 67.4076C395.968 67.9741 395.636 68.4744 395.311 68.9083L394.515 69.6496V69.74L395.6 69.4688H398.403V71.3853H392.057V70.1377C392.31 69.8244 392.581 69.4688 392.87 69.071C393.171 68.6612 393.467 68.2333 393.756 67.7873C394.057 67.3293 394.347 66.8592 394.624 66.3771C394.901 65.8829 395.142 65.3947 395.347 64.9126C395.564 64.4184 395.733 63.9362 395.853 63.4661C395.986 62.996 396.04 62.5561 396.016 62.1463C396.04 61.64 395.932 61.2302 395.691 60.9168C395.45 60.6034 395.07 60.4467 394.552 60.4467C394.25 60.4467 393.943 60.519 393.629 60.6637C393.316 60.7963 393.051 60.959 392.834 61.1519L392.002 59.5789C392.4 59.2414 392.852 58.9762 393.358 58.7833C393.865 58.5784 394.461 58.476 395.148 58.476C395.582 58.476 395.986 58.5483 396.36 58.6929C396.733 58.8255 397.053 59.0304 397.318 59.3077C397.595 59.5849 397.812 59.9284 397.969 60.3382C398.125 60.7481 398.204 61.2242 398.204 61.7666ZM401.378 58.5121C401.836 59.0907 402.221 59.7295 402.535 60.4286C402.848 61.1157 403.101 61.8269 403.294 62.5621C403.499 63.2853 403.644 64.0206 403.728 64.7679C403.824 65.5032 403.873 66.2083 403.873 66.8833C403.873 67.5462 403.824 68.2453 403.728 68.9806C403.644 69.7159 403.499 70.4572 403.294 71.2045C403.101 71.9397 402.842 72.663 402.517 73.3741C402.203 74.0853 401.812 74.7482 401.341 75.3629L399.877 74.5312C400.239 73.9286 400.534 73.3078 400.763 72.669C401.004 72.0301 401.191 71.3853 401.323 70.7344C401.468 70.0835 401.57 69.4326 401.631 68.7817C401.691 68.1308 401.721 67.498 401.721 66.8833C401.721 66.3047 401.685 65.684 401.613 65.021C401.54 64.346 401.426 63.6771 401.269 63.0141C401.112 62.3391 400.92 61.6882 400.691 61.0615C400.462 60.4347 400.19 59.8621 399.877 59.3438L401.378 58.5121Z" fill="#BB8E34"/>
<path d="M188.848 245.039C188.39 244.46 188.005 243.821 187.691 243.122C187.378 242.435 187.119 241.73 186.914 241.007C186.721 240.272 186.576 239.536 186.48 238.801C186.395 238.054 186.353 237.343 186.353 236.668C186.353 236.005 186.395 235.306 186.48 234.57C186.576 233.835 186.721 233.1 186.914 232.364C187.119 231.617 187.378 230.888 187.691 230.177C188.017 229.466 188.414 228.803 188.884 228.188L190.331 229.002C190.005 229.568 189.728 230.171 189.499 230.81C189.27 231.436 189.077 232.081 188.921 232.744C188.776 233.407 188.667 234.076 188.595 234.751C188.535 235.414 188.505 236.053 188.505 236.668C188.505 237.246 188.541 237.867 188.613 238.53C188.686 239.193 188.794 239.862 188.939 240.537C189.083 241.2 189.27 241.845 189.499 242.471C189.74 243.098 190.023 243.665 190.349 244.171L188.848 245.039ZM194.278 239.398C194.869 239.398 195.315 239.199 195.616 238.801C195.929 238.403 196.086 237.897 196.086 237.282C196.086 235.92 195.411 235.239 194.061 235.239H192.994V234.01L194.784 230.972L195.652 230.159L194.459 230.321H191.982V228.405H197.768V229.689L195.67 233.106L195.001 233.594V233.684L195.67 233.576C196.008 233.6 196.333 233.69 196.647 233.847C196.96 234.004 197.231 234.227 197.46 234.516C197.701 234.805 197.888 235.167 198.021 235.601C198.165 236.035 198.238 236.547 198.238 237.138C198.238 237.849 198.135 238.464 197.93 238.982C197.738 239.5 197.466 239.934 197.117 240.284C196.779 240.633 196.375 240.892 195.905 241.061C195.447 241.23 194.953 241.314 194.423 241.314C193.977 241.314 193.507 241.266 193.013 241.17C192.518 241.073 192.127 240.935 191.837 240.754L192.416 238.946C192.669 239.078 192.946 239.187 193.248 239.271C193.549 239.355 193.892 239.398 194.278 239.398ZM201.104 228.188C201.562 228.766 201.948 229.405 202.261 230.104C202.575 230.791 202.828 231.503 203.021 232.238C203.226 232.961 203.37 233.696 203.455 234.444C203.551 235.179 203.599 235.884 203.599 236.559C203.599 237.222 203.551 237.921 203.455 238.656C203.37 239.392 203.226 240.133 203.021 240.88C202.828 241.616 202.569 242.339 202.243 243.05C201.93 243.761 201.538 244.424 201.068 245.039L199.603 244.207C199.965 243.604 200.26 242.984 200.489 242.345C200.73 241.706 200.917 241.061 201.05 240.41C201.195 239.759 201.297 239.108 201.357 238.458C201.418 237.807 201.448 237.174 201.448 236.559C201.448 235.981 201.412 235.36 201.339 234.697C201.267 234.022 201.152 233.353 200.996 232.69C200.839 232.015 200.646 231.364 200.417 230.737C200.188 230.11 199.917 229.538 199.603 229.02L201.104 228.188Z" fill="#BB8E34"/>
<path d="M347.33 147.155C329.411 129.215 305.82 118.063 280.578 115.6C255.336 113.136 230.003 119.513 208.897 133.644M336.899 93.1295L351.035 146.131L298.066 160.391M297.983 330.897C322.492 324.299 343.975 309.401 358.772 288.743C373.568 268.084 380.763 242.943 379.129 217.602M349.954 348.784L297.014 334.632L311.256 281.601M163.812 196.555C157.222 221.093 159.329 247.143 169.775 270.265C180.221 293.387 198.359 312.152 221.098 323.361M122.272 232.694L161.077 193.844L199.803 232.615" stroke="#666666" stroke-opacity="0.4" stroke-width="20.8618" stroke-linecap="round" stroke-linejoin="round"/>
<path d="M159.05 297C159.05 297 174.722 312.088 159.05 322.593C143.378 333.098 159.05 348.186 159.05 348.186" stroke="#F86161" stroke-width="4" stroke-linecap="round"/>
<path d="M142.507 297C142.507 297 158.18 312.088 142.507 322.593C126.835 333.098 142.507 348.186 142.507 348.186" stroke="#F86161" stroke-width="4" stroke-linecap="round"/>
<path d="M125.964 297C125.964 297 141.637 312.088 125.964 322.593C110.292 333.098 125.964 348.186 125.964 348.186" stroke="#F86161" stroke-width="4" stroke-linecap="round"/>
<path d="M359.05 297C359.05 297 374.722 312.088 359.05 322.593C343.378 333.098 359.05 348.186 359.05 348.186" stroke="#F86161" stroke-width="4" stroke-linecap="round"/>
<path d="M342.507 297C342.507 297 358.18 312.088 342.507 322.593C326.835 333.098 342.507 348.186 342.507 348.186" stroke="#F86161" stroke-width="4" stroke-linecap="round"/>
<path d="M325.964 297C325.964 297 341.637 312.088 325.964 322.593C310.292 333.098 325.964 348.186 325.964 348.186" stroke="#F86161" stroke-width="4" stroke-linecap="round"/>
<defs>
<clipPath id="clip0_3448_2111">
<rect width="112.654" height="23.6434" fill="white" transform="translate(221.642 193.635)"/>
</clipPath>
<clipPath id="clip1_3448_2111">
<rect width="112.654" height="23.6434" fill="white" transform="translate(221.642 249.268)"/>
</clipPath>
<clipPath id="clip2_3448_2111">
<rect width="119.608" height="36.1605" fill="white" transform="translate(334.298 86.5493)"/>
</clipPath>
<clipPath id="clip3_3448_2111">
<rect width="62.5855" height="55.6316" fill="white" transform="translate(118.728 99.0591)"/>
</clipPath>
</defs>
</svg>
