<svg width="11" height="10" viewBox="0 0 11 10" fill="none" xmlns="http://www.w3.org/2000/svg">
<path d="M10.4194 0.283027C10.1269 -0.00947246 9.65438 -0.00947246 9.36188 0.283027L5.69438 3.94303L2.02688 0.275527C1.73438 -0.0169726 1.26188 -0.0169726 0.969375 0.275527C0.676875 0.568027 0.676875 1.04053 0.969375 1.33303L4.63688 5.00052L0.969375 8.66802C0.676875 8.96052 0.676875 9.43302 0.969375 9.72552C1.26188 10.018 1.73438 10.018 2.02688 9.72552L5.69438 6.05802L9.36188 9.72552C9.65438 10.018 10.1269 10.018 10.4194 9.72552C10.7119 9.43302 10.7119 8.96052 10.4194 8.66802L6.75188 5.00052L10.4194 1.33303C10.7044 1.04803 10.7044 0.568027 10.4194 0.283027Z" fill="#323232" fill-opacity="0.5"/>
</svg>
