<svg width="6" height="12" viewBox="0 0 6 12" fill="none" xmlns="http://www.w3.org/2000/svg">
<path d="M1.66499 6.73465C1.52865 6.59284 1.45205 6.40054 1.45205 6.20002C1.45205 5.99951 1.52865 5.80721 1.66499 5.6654L4.99953 2.19753C5.13201 2.05491 5.20532 1.8639 5.20366 1.66563C5.202 1.46736 5.12552 1.2777 4.99067 1.1375C4.85583 0.997295 4.67342 0.917767 4.48274 0.916044C4.29205 0.914321 4.10834 0.990541 3.97117 1.12829L0.638807 4.59615C0.229779 5.02157 0 5.59848 0 6.20002C0 6.80156 0.229779 7.37848 0.638807 7.80389L3.97408 11.2718C4.11124 11.4095 4.29496 11.4857 4.48564 11.484C4.67633 11.4823 4.85874 11.4028 4.99358 11.2625C5.12843 11.1223 5.20491 10.9327 5.20657 10.7344C5.20823 10.5361 5.13492 10.3451 5.00244 10.2025L1.66499 6.73465Z" fill="#FAFAFA"/>
</svg>
