<svg width="6" height="12" viewBox="0 0 6 12" fill="none" xmlns="http://www.w3.org/2000/svg">
<path d="M3.54204 5.71018C3.67838 5.85198 3.75498 6.04429 3.75498 6.2448C3.75498 6.44531 3.67838 6.63762 3.54204 6.77942L0.207497 10.2473C0.0750183 10.3899 0.0017132 10.5809 0.00337022 10.7792C0.00502725 10.9775 0.0815143 11.1671 0.216357 11.3073C0.351199 11.4475 0.533607 11.5271 0.724296 11.5288C0.914985 11.5305 1.0987 11.4543 1.23586 11.3165L4.56822 7.84867C4.97725 7.42325 5.20703 6.84634 5.20703 6.2448C5.20703 5.64326 4.97725 5.06635 4.56822 4.64093L1.23295 1.17306C1.09579 1.03532 0.912075 0.959099 0.721386 0.960823C0.530698 0.962545 0.348289 1.04207 0.213446 1.18228C0.0786038 1.32248 0.00211775 1.51214 0.000460753 1.71041C-0.00119624 1.90868 0.0721084 2.09969 0.204587 2.24231L3.54204 5.71018Z" fill="#FAFAFA"/>
</svg>
