<svg width="25" height="25" viewBox="0 0 25 25" fill="none" xmlns="http://www.w3.org/2000/svg">
<g clip-path="url(#clip0_3381_1665)">
<path d="M12.416 6.39087C11.6249 6.39087 10.8515 6.62546 10.1937 7.06499C9.53594 7.50452 9.02325 8.12923 8.7205 8.86014C8.41775 9.59104 8.33854 10.3953 8.49288 11.1712C8.64722 11.9472 9.02818 12.6599 9.58759 13.2193C10.147 13.7787 10.8597 14.1597 11.6357 14.314C12.4116 14.4684 13.2158 14.3891 13.9468 14.0864C14.6777 13.7836 15.3024 13.2709 15.7419 12.6131C16.1814 11.9554 16.416 11.182 16.416 10.3909C16.416 9.33 15.9946 8.31259 15.2444 7.56244C14.4943 6.8123 13.4769 6.39087 12.416 6.39087ZM12.416 12.3909C12.0205 12.3909 11.6338 12.2736 11.3049 12.0538C10.976 11.834 10.7196 11.5217 10.5683 11.1562C10.4169 10.7908 10.3773 10.3887 10.4544 10.0007C10.5316 9.61273 10.7221 9.25636 11.0018 8.97666C11.2815 8.69695 11.6379 8.50647 12.0258 8.4293C12.4138 8.35213 12.8159 8.39173 13.1814 8.54311C13.5468 8.69449 13.8592 8.95083 14.079 9.27973C14.2987 9.60863 14.416 9.99531 14.416 10.3909C14.416 10.9213 14.2053 11.43 13.8302 11.8051C13.4552 12.1802 12.9465 12.3909 12.416 12.3909Z" fill="#BB8E34"/>
<path d="M12.4163 24.3909C11.5743 24.3952 10.7434 24.1977 9.99339 23.815C9.24335 23.4322 8.59592 22.8753 8.10533 22.1909C4.29433 16.9339 2.36133 12.9819 2.36133 10.4439C2.36133 7.77716 3.42069 5.21964 5.30637 3.33396C7.19205 1.44828 9.74958 0.388916 12.4163 0.388916C15.0831 0.388916 17.6406 1.44828 19.5263 3.33396C21.412 5.21964 22.4713 7.77716 22.4713 10.4439C22.4713 12.9819 20.5383 16.9339 16.7273 22.1909C16.2367 22.8753 15.5893 23.4322 14.8393 23.815C14.0892 24.1977 13.2584 24.3952 12.4163 24.3909ZM12.4163 2.57192C10.3287 2.5743 8.32735 3.40464 6.8512 4.88079C5.37505 6.35693 4.54471 8.35833 4.54233 10.4459C4.54233 12.4559 6.43533 16.1729 9.87133 20.9119C10.163 21.3137 10.5457 21.6407 10.988 21.8662C11.4304 22.0917 11.9198 22.2092 12.4163 22.2092C12.9128 22.2092 13.4023 22.0917 13.8446 21.8662C14.287 21.6407 14.6696 21.3137 14.9613 20.9119C18.3973 16.1729 20.2903 12.4559 20.2903 10.4459C20.2879 8.35833 19.4576 6.35693 17.9815 4.88079C16.5053 3.40464 14.5039 2.5743 12.4163 2.57192Z" fill="#BB8E34"/>
</g>
<defs>
<clipPath id="clip0_3381_1665">
<rect width="24" height="24" fill="white" transform="translate(0.416016 0.390869)"/>
</clipPath>
</defs>
</svg>
