<svg width="33" height="26" viewBox="0 0 33 26" fill="none" xmlns="http://www.w3.org/2000/svg">
<path fill-rule="evenodd" clip-rule="evenodd" d="M14.3755 6.31604V21.0969C14.3809 21.1968 14.3637 21.2967 14.3249 21.3905C14.2861 21.4843 14.2265 21.57 14.1498 21.6424C14.0731 21.7148 13.9808 21.7725 13.8786 21.8119C13.7764 21.8513 13.6663 21.8716 13.5551 21.8716C13.4438 21.8716 13.3338 21.8513 13.2315 21.8119C13.1293 21.7725 13.037 21.7148 12.9603 21.6424C12.8836 21.57 12.824 21.4843 12.7852 21.3905C12.7464 21.2967 12.7292 21.1968 12.7346 21.0969V10.0141C12.723 9.53109 12.5015 9.0714 12.1176 8.73351C11.7338 8.39563 11.2181 8.20641 10.681 8.20641C10.144 8.20641 9.62826 8.39563 9.24441 8.73351C8.86056 9.0714 8.63909 9.53109 8.62744 10.0141V21.0969C8.63284 21.1968 8.61561 21.2967 8.57681 21.3905C8.53801 21.4843 8.47845 21.57 8.40173 21.6424C8.32501 21.7148 8.23274 21.7725 8.1305 21.8119C8.02827 21.8513 7.9182 21.8716 7.80698 21.8716C7.69575 21.8716 7.58569 21.8513 7.48346 21.8119C7.38122 21.7725 7.28895 21.7148 7.21223 21.6424C7.13551 21.57 7.07595 21.4843 7.03715 21.3905C6.99835 21.2967 6.98112 21.1968 6.98651 21.0969V13.7086C6.99244 13.4627 6.94371 13.2181 6.84317 12.9894C6.74263 12.7606 6.59231 12.5521 6.40103 12.3763C6.20975 12.2005 5.98136 12.0608 5.72926 11.9654C5.47716 11.87 5.20642 11.8209 4.93293 11.8209C4.65944 11.8209 4.38871 11.87 4.1366 11.9654C3.8845 12.0608 3.65612 12.2005 3.46484 12.3763C3.27356 12.5521 3.12324 12.7606 3.0227 12.9894C2.92216 13.2181 2.87343 13.4627 2.87936 13.7086V21.0969C2.87936 22.2727 3.39861 23.4004 4.3229 24.2319C5.24719 25.0633 6.5008 25.5304 7.80794 25.5304H27.9277C29.2349 25.5304 30.4885 25.0633 31.4127 24.2319C32.337 23.4004 32.8563 22.2727 32.8563 21.0969V13.3388C32.857 12.6217 32.6642 11.9151 32.2943 11.2799C31.9244 10.6446 31.3885 10.0997 30.7327 9.69195V9.69195L30.7057 9.67545L30.6652 9.65114L19.2925 2.71178C19.2259 2.66923 19.1584 2.62495 19.0898 2.58761L19.0812 2.58327C18.2884 2.12781 17.3674 1.88581 16.4267 1.88581C15.486 1.88581 14.565 2.12781 13.7723 2.58327V2.58327C13.6342 2.66239 13.5008 2.74788 13.3726 2.83941L12.7317 3.25098V1.88777C12.7376 1.64181 12.6889 1.39726 12.5884 1.16847C12.4878 0.939683 12.3375 0.731257 12.1462 0.555422C11.9549 0.379587 11.7266 0.239883 11.4745 0.144506C11.2224 0.049129 10.9516 0 10.6781 0C10.4046 0 10.1339 0.049129 9.8818 0.144506C9.6297 0.239883 9.40131 0.379587 9.21003 0.555422C9.01875 0.731257 8.86843 0.939683 8.76789 1.16847C8.66736 1.39726 8.61862 1.64181 8.62455 1.88777V5.89058L2.13418 10.0584C1.47564 10.4656 0.937208 11.0109 0.565378 11.6471C0.193548 12.2834 -0.000497521 12.9915 9.57975e-07 13.7104V21.3452C9.57975e-07 21.617 0.276063 21.8376 0.615832 21.8376C0.955602 21.8376 1.23263 21.617 1.23263 21.3452V13.7086C1.2319 13.1797 1.37167 12.6583 1.64032 12.1879C1.90896 11.7174 2.29869 11.3115 2.77704 11.0039V11.0039L9.85718 6.45844V1.88777C9.85179 1.78784 9.86902 1.68796 9.90782 1.59419C9.94661 1.50043 10.0062 1.41473 10.0829 1.34229C10.1596 1.26985 10.2519 1.21217 10.3541 1.17277C10.4564 1.13336 10.5664 1.11305 10.6776 1.11305C10.7889 1.11305 10.8989 1.13336 11.0012 1.17277C11.1034 1.21217 11.1957 1.26985 11.2724 1.34229C11.3491 1.41473 11.4087 1.50043 11.4475 1.59419C11.4863 1.68796 11.5035 1.78784 11.4981 1.88777V5.4026L11.6236 5.32185L12.1805 4.96498L14.417 3.5297C15.0158 3.1809 15.7139 2.99531 16.4272 2.99531C17.1405 2.99531 17.8386 3.1809 18.4373 3.5297L30.0899 10.6401C30.5651 10.9479 30.9521 11.353 31.2188 11.822C31.4855 12.2909 31.6243 12.8103 31.6237 13.337V21.0952C31.6237 21.5318 31.5281 21.9641 31.3423 22.3675C31.1566 22.7708 30.8844 23.1374 30.5412 23.4461C30.1979 23.7548 29.7905 23.9997 29.3421 24.1668C28.8937 24.3339 28.4131 24.4199 27.9277 24.4199H7.80408C7.31872 24.4199 6.83811 24.3339 6.3897 24.1668C5.94129 23.9997 5.53385 23.7548 5.19065 23.4461C4.84744 23.1374 4.5752 22.7708 4.38946 22.3675C4.20372 21.9641 4.10812 21.5318 4.10812 21.0952V13.7086C4.11835 13.5191 4.20925 13.3404 4.362 13.2095C4.51475 13.0786 4.71762 13.0055 4.92859 13.0055C5.13955 13.0055 5.34243 13.0786 5.49518 13.2095C5.64793 13.3404 5.73883 13.5191 5.74906 13.7086V21.0969C5.74313 21.3429 5.79186 21.5874 5.8924 21.8162C5.99294 22.045 6.14326 22.2534 6.33454 22.4293C6.52582 22.6051 6.75421 22.7448 7.00631 22.8402C7.25841 22.9356 7.52915 22.9847 7.80264 22.9847C8.07613 22.9847 8.34686 22.9356 8.59896 22.8402C8.85106 22.7448 9.07946 22.6051 9.27073 22.4293C9.46201 22.2534 9.61233 22.045 9.71287 21.8162C9.81341 21.5874 9.86214 21.3429 9.85621 21.0969V10.0141C9.85082 9.91415 9.86805 9.81427 9.90685 9.72051C9.94565 9.62674 10.0052 9.54104 10.0819 9.4686C10.1587 9.39616 10.2509 9.33849 10.3532 9.29908C10.4554 9.25968 10.5655 9.23936 10.6767 9.23936C10.7879 9.23936 10.898 9.25968 11.0002 9.29908C11.1024 9.33849 11.1947 9.39616 11.2714 9.4686C11.3481 9.54104 11.4077 9.62674 11.4465 9.72051C11.4853 9.81427 11.5025 9.91415 11.4971 10.0141V21.0969C11.4912 21.3429 11.54 21.5874 11.6405 21.8162C11.741 22.045 11.8913 22.2534 12.0826 22.4293C12.2739 22.6051 12.5023 22.7448 12.7544 22.8402C13.0065 22.9356 13.2772 22.9847 13.5507 22.9847C13.8242 22.9847 14.095 22.9356 14.3471 22.8402C14.5992 22.7448 14.8275 22.6051 15.0188 22.4293C15.2101 22.2534 15.3604 22.045 15.461 21.8162C15.5615 21.5874 15.6102 21.3429 15.6043 21.0969V6.31604C15.5989 6.21611 15.6161 6.11623 15.6549 6.02246C15.6937 5.9287 15.7533 5.843 15.83 5.77056C15.9067 5.69812 15.999 5.64044 16.1012 5.60104C16.2035 5.56163 16.3135 5.54132 16.4248 5.54132C16.536 5.54132 16.6461 5.56163 16.7483 5.60104C16.8505 5.64044 16.9428 5.69812 17.0195 5.77056C17.0962 5.843 17.1558 5.9287 17.1946 6.02246C17.2334 6.11623 17.2506 6.21611 17.2452 6.31604V21.0969C17.2393 21.3429 17.288 21.5874 17.3886 21.8162C17.4891 22.045 17.6394 22.2534 17.8307 22.4293C18.022 22.6051 18.2504 22.7448 18.5025 22.8402C18.7546 22.9356 19.0253 22.9847 19.2988 22.9847C19.5723 22.9847 19.843 22.9356 20.0951 22.8402C20.3472 22.7448 20.5756 22.6051 20.7669 22.4293C20.9582 22.2534 21.1085 22.045 21.2091 21.8162C21.3096 21.5874 21.3583 21.3429 21.3524 21.0969V10.0141C21.3626 9.82453 21.4535 9.64579 21.6063 9.51489C21.759 9.38399 21.9619 9.31098 22.1729 9.31098C22.3838 9.31098 22.5867 9.38399 22.7395 9.51489C22.8922 9.64579 22.9831 9.82453 22.9933 10.0141V21.0969C22.9933 21.3394 23.0464 21.5796 23.1496 21.8037C23.2528 22.0277 23.404 22.2313 23.5947 22.4028C23.7853 22.5743 24.0116 22.7104 24.2607 22.8032C24.5098 22.896 24.7768 22.9438 25.0464 22.9438C25.316 22.9438 25.583 22.896 25.8321 22.8032C26.0812 22.7104 26.3075 22.5743 26.4982 22.4028C26.6888 22.2313 26.8401 22.0277 26.9432 21.8037C27.0464 21.5796 27.0995 21.3394 27.0995 21.0969V13.3388C27.1097 13.1492 27.2007 12.9705 27.3534 12.8396C27.5061 12.7087 27.709 12.6357 27.92 12.6357C28.131 12.6357 28.3338 12.7087 28.4866 12.8396C28.6393 12.9705 28.7302 13.1492 28.7405 13.3388V21.2819C28.7468 21.4251 28.8144 21.5606 28.9293 21.6599C29.0442 21.7593 29.1974 21.8148 29.3568 21.8148C29.5161 21.8148 29.6693 21.7593 29.7842 21.6599C29.8991 21.5606 29.9668 21.4251 29.9731 21.2819V13.3388C29.9614 12.8558 29.74 12.3961 29.3561 12.0582C28.9723 11.7203 28.4566 11.5311 27.9195 11.5311C27.3824 11.5311 26.8667 11.7203 26.4829 12.0582C26.099 12.3961 25.8776 12.8558 25.8659 13.3388V21.0969C25.8713 21.1968 25.8541 21.2967 25.8153 21.3905C25.7765 21.4843 25.7169 21.57 25.6402 21.6424C25.5635 21.7148 25.4712 21.7725 25.369 21.8119C25.2668 21.8513 25.1567 21.8716 25.0455 21.8716C24.9342 21.8716 24.8242 21.8513 24.7219 21.8119C24.6197 21.7725 24.5274 21.7148 24.4507 21.6424C24.374 21.57 24.3144 21.4843 24.2756 21.3905C24.2368 21.2967 24.2196 21.1968 24.225 21.0969V10.0141C24.2134 9.53109 23.9919 9.0714 23.608 8.73351C23.2242 8.39563 22.7085 8.20641 22.1714 8.20641C21.6344 8.20641 21.1187 8.39563 20.7348 8.73351C20.351 9.0714 20.1295 9.53109 20.1178 10.0141V21.0969C20.1232 21.1968 20.106 21.2967 20.0672 21.3905C20.0284 21.4843 19.9688 21.57 19.8921 21.6424C19.8154 21.7148 19.7231 21.7725 19.6209 21.8119C19.5187 21.8513 19.4086 21.8716 19.2974 21.8716C19.1861 21.8716 19.0761 21.8513 18.9738 21.8119C18.8716 21.7725 18.7793 21.7148 18.7026 21.6424C18.6259 21.57 18.5663 21.4843 18.5275 21.3905C18.4887 21.2967 18.4715 21.1968 18.4769 21.0969V6.31604C18.4769 5.82623 18.2606 5.35647 17.8756 5.01012C17.4905 4.66377 16.9683 4.46919 16.4238 4.46919C15.8793 4.46919 15.3571 4.66377 14.972 5.01012C14.587 5.35647 14.3707 5.82623 14.3707 6.31604H14.3755Z" fill="#FAF39E"/>
</svg>
