<svg width="58" height="45" viewBox="0 0 58 45" fill="none" xmlns="http://www.w3.org/2000/svg">
<g id="Vector Smart Object 2" clip-path="url(#clip0_3539_14788)">
<path id="Vector" fill-rule="evenodd" clip-rule="evenodd" d="M25.3754 11.0807V37.1736C25.3849 37.35 25.3545 37.5263 25.286 37.6918C25.2175 37.8574 25.1124 38.0087 24.9769 38.1365C24.8415 38.2644 24.6786 38.3662 24.4981 38.4358C24.3177 38.5054 24.1234 38.5412 23.927 38.5412C23.7307 38.5412 23.5364 38.5054 23.3559 38.4358C23.1754 38.3662 23.0125 38.2644 22.8771 38.1365C22.7417 38.0087 22.6365 37.8574 22.568 37.6918C22.4995 37.5263 22.4691 37.35 22.4786 37.1736V17.6089C22.4581 16.7563 22.0671 15.9448 21.3895 15.3483C20.7119 14.7518 19.8015 14.4178 18.8534 14.4178C17.9053 14.4178 16.995 14.7518 16.3173 15.3483C15.6397 15.9448 15.2488 16.7563 15.2282 17.6089V37.1736C15.2377 37.35 15.2073 37.5263 15.1388 37.6918C15.0703 37.8574 14.9652 38.0087 14.8297 38.1365C14.6943 38.2644 14.5314 38.3662 14.3509 38.4358C14.1705 38.5054 13.9762 38.5412 13.7798 38.5412C13.5835 38.5412 13.3892 38.5054 13.2087 38.4358C13.0282 38.3662 12.8653 38.2644 12.7299 38.1365C12.5945 38.0087 12.4893 37.8574 12.4208 37.6918C12.3523 37.5263 12.3219 37.35 12.3314 37.1736V24.131C12.3419 23.6968 12.2559 23.2651 12.0784 22.8612C11.9009 22.4573 11.6356 22.0894 11.2979 21.779C10.9602 21.4686 10.557 21.2219 10.112 21.0536C9.66696 20.8852 9.18902 20.7985 8.70623 20.7985C8.22343 20.7985 7.74549 20.8852 7.30046 21.0536C6.85542 21.2219 6.45224 21.4686 6.11457 21.779C5.7769 22.0894 5.51155 22.4573 5.33406 22.8612C5.15658 23.2651 5.07055 23.6968 5.08101 24.131V37.1736C5.08101 39.2493 5.99767 41.24 7.62933 42.7078C9.26099 44.1755 11.474 45.0001 13.7815 45.0001H49.2992C51.6068 45.0001 53.8198 44.1755 55.4514 42.7078C57.0831 41.24 57.9998 39.2493 57.9998 37.1736V23.478C58.0011 22.2121 57.6606 20.9648 57.0076 19.8434C56.3546 18.722 55.4086 17.7601 54.251 17.0402L54.2033 17.0111L54.1317 16.9682L34.0555 4.71804C33.9379 4.64294 33.8186 4.56476 33.6976 4.49885L33.6823 4.49119C32.2828 3.68716 30.6569 3.25995 28.9963 3.25995C27.3358 3.25995 25.7099 3.68716 24.3104 4.49119C24.0667 4.63086 23.8313 4.78179 23.605 4.94337L22.4735 5.66991V3.26341C22.484 2.82922 22.398 2.39752 22.2205 1.99363C22.043 1.58974 21.7776 1.22181 21.44 0.911402C21.1023 0.600998 20.6991 0.354377 20.2541 0.186006C19.809 0.0176363 19.3311 -0.0690918 18.8483 -0.0690918C18.3655 -0.0690918 17.8876 0.0176363 17.4425 0.186006C16.9975 0.354377 16.5943 0.600998 16.2566 0.911402C15.919 1.22181 15.6536 1.58974 15.4761 1.99363C15.2987 2.39752 15.2126 2.82922 15.2231 3.26341V10.3296L3.76554 17.6871C2.60302 18.4059 1.65251 19.3685 0.996117 20.4918C0.33972 21.615 -0.00283141 22.8651 -0.00195143 24.134V37.612C-0.00195143 38.0917 0.485384 38.4811 1.08518 38.4811C1.68498 38.4811 2.17403 38.0917 2.17403 37.612V24.131C2.17274 23.1973 2.41948 22.2769 2.89372 21.4463C3.36796 20.6158 4.05596 19.8992 4.90039 19.3563L17.3991 11.3321V3.26341C17.3896 3.087 17.42 2.91069 17.4885 2.74516C17.557 2.57963 17.6621 2.42834 17.7975 2.30046C17.933 2.17258 18.0959 2.07078 18.2763 2.00121C18.4568 1.93165 18.6511 1.89578 18.8475 1.89578C19.0438 1.89578 19.2381 1.93165 19.4186 2.00121C19.599 2.07078 19.7619 2.17258 19.8974 2.30046C20.0328 2.42834 20.138 2.57963 20.2064 2.74516C20.2749 2.91069 20.3053 3.087 20.2958 3.26341V9.4682L20.5173 9.32565L21.5005 8.69567L25.4487 6.16194C26.5056 5.5462 27.738 5.21858 28.9972 5.21858C30.2564 5.21858 31.4888 5.5462 32.5457 6.16194L53.1162 18.7141C53.9551 19.2574 54.6383 19.9725 55.1091 20.8004C55.5799 21.6282 55.8249 22.545 55.8238 23.4749V37.1705C55.8238 37.9413 55.655 38.7045 55.3271 39.4165C54.9992 40.1286 54.5186 40.7756 53.9128 41.3206C53.3069 41.8656 52.5877 42.2979 51.7961 42.5929C51.0045 42.8878 50.1561 43.0396 49.2992 43.0396H13.7747C12.9179 43.0396 12.0695 42.8878 11.2779 42.5929C10.4863 42.2979 9.76703 41.8656 9.16117 41.3206C8.55531 40.7756 8.07472 40.1286 7.74683 39.4165C7.41894 38.7045 7.25018 37.9413 7.25018 37.1705V24.131C7.26822 23.7964 7.4287 23.4808 7.69835 23.2498C7.968 23.0187 8.32614 22.8898 8.69856 22.8898C9.07098 22.8898 9.42912 23.0187 9.69877 23.2498C9.96842 23.4808 10.1289 23.7964 10.1469 24.131V37.1736C10.1365 37.6078 10.2225 38.0395 10.4 38.4434C10.5775 38.8473 10.8428 39.2152 11.1805 39.5256C11.5182 39.836 11.9213 40.0826 12.3664 40.251C12.8114 40.4194 13.2894 40.5061 13.7722 40.5061C14.255 40.5061 14.7329 40.4194 15.1779 40.251C15.623 40.0826 16.0261 39.836 16.3638 39.5256C16.7015 39.2152 16.9668 38.8473 17.1443 38.4434C17.3218 38.0395 17.4078 37.6078 17.3974 37.1736V17.6089C17.3878 17.4325 17.4183 17.2562 17.4868 17.0907C17.5553 16.9251 17.6604 16.7738 17.7958 16.646C17.9313 16.5181 18.0942 16.4163 18.2746 16.3467C18.4551 16.2771 18.6494 16.2413 18.8457 16.2413C19.0421 16.2413 19.2364 16.2771 19.4169 16.3467C19.5973 16.4163 19.7602 16.5181 19.8957 16.646C20.0311 16.7738 20.1362 16.9251 20.2047 17.0907C20.2732 17.2562 20.3036 17.4325 20.2941 17.6089V37.1736C20.2837 37.6078 20.3697 38.0395 20.5472 38.4434C20.7247 38.8473 20.99 39.2152 21.3277 39.5256C21.6654 39.836 22.0685 40.0826 22.5136 40.251C22.9586 40.4194 23.4365 40.5061 23.9193 40.5061C24.4021 40.5061 24.8801 40.4194 25.3251 40.251C25.7702 40.0826 26.1733 39.836 26.511 39.5256C26.8487 39.2152 27.114 38.8473 27.2915 38.4434C27.469 38.0395 27.555 37.6078 27.5446 37.1736V11.0807C27.535 10.9043 27.5655 10.728 27.6339 10.5625C27.7024 10.3969 27.8076 10.2456 27.943 10.1178C28.0784 9.98987 28.2413 9.88807 28.4218 9.8185C28.6023 9.74894 28.7966 9.71307 28.9929 9.71307C29.1893 9.71307 29.3836 9.74894 29.5641 9.8185C29.7445 9.88807 29.9074 9.98987 30.0429 10.1178C30.1783 10.2456 30.2834 10.3969 30.3519 10.5625C30.4204 10.728 30.4508 10.9043 30.4413 11.0807V37.1736C30.4309 37.6078 30.5169 38.0395 30.6944 38.4434C30.8718 38.8473 31.1372 39.2152 31.4749 39.5256C31.8125 39.836 32.2157 40.0826 32.6608 40.251C33.1058 40.4194 33.5837 40.5061 34.0665 40.5061C34.5493 40.5061 35.0273 40.4194 35.4723 40.251C35.9173 40.0826 36.3205 39.836 36.6582 39.5256C36.9959 39.2152 37.2612 38.8473 37.4387 38.4434C37.6162 38.0395 37.7022 37.6078 37.6917 37.1736V17.6089C37.7098 17.2743 37.8703 16.9588 38.1399 16.7277C38.4096 16.4966 38.7677 16.3677 39.1401 16.3677C39.5125 16.3677 39.8707 16.4966 40.1403 16.7277C40.41 16.9588 40.5705 17.2743 40.5885 17.6089V37.1736C40.5885 37.6017 40.6823 38.0257 40.8644 38.4212C41.0465 38.8168 41.3135 39.1762 41.6501 39.479C41.9866 39.7817 42.3862 40.0218 42.8259 40.1857C43.2656 40.3495 43.7369 40.4339 44.2129 40.4339C44.6888 40.4339 45.1601 40.3495 45.5998 40.1857C46.0396 40.0218 46.4391 39.7817 46.7757 39.479C47.1122 39.1762 47.3792 38.8168 47.5613 38.4212C47.7435 38.0257 47.8372 37.6017 47.8372 37.1736V23.478C47.8553 23.1434 48.0158 22.8279 48.2854 22.5968C48.555 22.3657 48.9132 22.2368 49.2856 22.2368C49.658 22.2368 50.0162 22.3657 50.2858 22.5968C50.5555 22.8279 50.7159 23.1434 50.734 23.478V37.5001C50.7451 37.7529 50.8646 37.9921 51.0674 38.1675C51.2703 38.3429 51.5407 38.4408 51.822 38.4408C52.1033 38.4408 52.3737 38.3429 52.5765 38.1675C52.7794 37.9921 52.8988 37.7529 52.91 37.5001V23.478C52.8894 22.6254 52.4985 21.8139 51.8208 21.2174C51.1432 20.6209 50.2328 20.2869 49.2848 20.2869C48.3367 20.2869 47.4263 20.6209 46.7487 21.2174C46.0711 21.8139 45.6801 22.6254 45.6595 23.478V37.1736C45.6691 37.35 45.6387 37.5263 45.5702 37.6918C45.5017 37.8574 45.3965 38.0087 45.2611 38.1365C45.1257 38.2644 44.9628 38.3662 44.7823 38.4358C44.6018 38.5054 44.4075 38.5412 44.2112 38.5412C44.0148 38.5412 43.8205 38.5054 43.64 38.4358C43.4596 38.3662 43.2967 38.2644 43.1612 38.1365C43.0258 38.0087 42.9207 37.8574 42.8522 37.6918C42.7837 37.5263 42.7533 37.35 42.7628 37.1736V17.6089C42.7422 16.7563 42.3513 15.9448 41.6736 15.3483C40.996 14.7518 40.0856 14.4178 39.1376 14.4178C38.1895 14.4178 37.2791 14.7518 36.6015 15.3483C35.9239 15.9448 35.5329 16.7563 35.5124 17.6089V37.1736C35.5219 37.35 35.4915 37.5263 35.423 37.6918C35.3545 37.8574 35.2493 38.0087 35.1139 38.1365C34.9785 38.2644 34.8156 38.3662 34.6351 38.4358C34.4546 38.5054 34.2603 38.5412 34.064 38.5412C33.8676 38.5412 33.6733 38.5054 33.4929 38.4358C33.3124 38.3662 33.1495 38.2644 33.0141 38.1365C32.8786 38.0087 32.7735 37.8574 32.705 37.6918C32.6365 37.5263 32.6061 37.35 32.6156 37.1736V11.0807C32.6156 10.216 32.2337 9.38677 31.554 8.77535C30.8743 8.16393 29.9525 7.82043 28.9912 7.82043C28.03 7.82043 27.1081 8.16393 26.4284 8.77535C25.7487 9.38677 25.3669 10.216 25.3669 11.0807H25.3754Z" fill="#FAF39E"/>
</g>
<defs>
<clipPath id="clip0_3539_14788">
<rect width="58" height="45" fill="white"/>
</clipPath>
</defs>
</svg>
