<svg width="71" height="53" viewBox="0 0 71 53" fill="none" xmlns="http://www.w3.org/2000/svg">
<path fill-rule="evenodd" clip-rule="evenodd" d="M30.9638 13.1086V43.7854C30.9754 43.9928 30.9383 44.2001 30.8547 44.3947C30.7711 44.5893 30.6428 44.7671 30.4776 44.9175C30.3123 45.0678 30.1136 45.1875 29.8934 45.2693C29.6732 45.3511 29.4361 45.3933 29.1965 45.3933C28.957 45.3933 28.7199 45.3511 28.4997 45.2693C28.2795 45.1875 28.0807 45.0678 27.9155 44.9175C27.7503 44.7671 27.622 44.5893 27.5384 44.3947C27.4548 44.2001 27.4177 43.9928 27.4293 43.7854V20.7836C27.4042 19.7812 26.9272 18.8271 26.1004 18.1259C25.2736 17.4246 24.1629 17.0319 23.0061 17.0319C21.8493 17.0319 20.7385 17.4246 19.9117 18.1259C19.0849 18.8271 18.6079 19.7812 18.5828 20.7836V43.7854C18.5944 43.9928 18.5573 44.2001 18.4738 44.3947C18.3902 44.5893 18.2619 44.7671 18.0967 44.9175C17.9314 45.0678 17.7327 45.1875 17.5124 45.2693C17.2922 45.3511 17.0552 45.3933 16.8156 45.3933C16.576 45.3933 16.339 45.3511 16.1188 45.2693C15.8986 45.1875 15.6998 45.0678 15.5346 44.9175C15.3693 44.7671 15.241 44.5893 15.1575 44.3947C15.0739 44.2001 15.0368 43.9928 15.0484 43.7854V28.4515C15.0612 27.941 14.9562 27.4335 14.7396 26.9586C14.5231 26.4838 14.1993 26.0512 13.7873 25.6863C13.3753 25.3213 12.8834 25.0314 12.3404 24.8334C11.7974 24.6355 11.2142 24.5335 10.6251 24.5335C10.0361 24.5335 9.45292 24.6355 8.90992 24.8334C8.36691 25.0314 7.87498 25.3213 7.46298 25.6863C7.05098 26.0512 6.72721 26.4838 6.51065 26.9586C6.2941 27.4335 6.18913 27.941 6.2019 28.4515V43.7854C6.2019 46.2257 7.32034 48.5662 9.31119 50.2918C11.302 52.0174 14.0022 52.9868 16.8177 52.9868H60.1541C62.9695 52.9868 65.6697 52.0174 67.6605 50.2918C69.6514 48.5662 70.7698 46.2257 70.7698 43.7854V27.6838C70.7714 26.1955 70.356 24.7291 69.5593 23.4107C68.7625 22.0923 67.6083 20.9613 66.1959 20.1151V20.1151L66.1376 20.0808L66.0503 20.0304L41.5546 5.62813C41.4111 5.53982 41.2656 5.44792 41.118 5.37043L41.0993 5.36142C39.3917 4.41614 37.4079 3.91388 35.3818 3.91388C33.3557 3.91388 31.3719 4.41614 29.6643 5.36142V5.36142C29.367 5.52562 29.0797 5.70307 28.8036 5.89303L27.4231 6.74722V3.91795C27.4359 3.40748 27.3309 2.89994 27.1143 2.4251C26.8978 1.95026 26.574 1.51768 26.162 1.15274C25.75 0.787809 25.2581 0.497862 24.7151 0.299913C24.1721 0.101964 23.5889 0 22.9998 0C22.4108 0 21.8276 0.101964 21.2846 0.299913C20.7416 0.497862 20.2497 0.787809 19.8377 1.15274C19.4257 1.51768 19.1019 1.95026 18.8853 2.4251C18.6688 2.89994 18.5638 3.40748 18.5766 3.91795V12.2255L4.59685 20.8755C3.17842 21.7206 2.01867 22.8524 1.21778 24.1729C0.416886 25.4935 -0.00107162 26.9632 2.0634e-06 28.4551V44.3008C2.0634e-06 44.8648 0.594617 45.3225 1.32645 45.3225C2.05829 45.3225 2.65499 44.8648 2.65499 44.3008V28.4515C2.65341 27.3538 2.95448 26.2716 3.53311 25.2952C4.11174 24.3187 4.95119 23.4763 5.98152 22.838V22.838L21.2316 13.4041V3.91795C21.22 3.71055 21.2571 3.50326 21.3406 3.30865C21.4242 3.11405 21.5525 2.93618 21.7178 2.78583C21.883 2.63549 22.0817 2.51579 22.3019 2.43401C22.5222 2.35223 22.7592 2.31006 22.9988 2.31006C23.2384 2.31006 23.4754 2.35223 23.6956 2.43401C23.9158 2.51579 24.1146 2.63549 24.2798 2.78583C24.4451 2.93618 24.5734 3.11405 24.6569 3.30865C24.7405 3.50326 24.7776 3.71055 24.766 3.91795V11.2128L25.0363 11.0452L26.2359 10.3045L31.0532 7.32569C32.3428 6.60177 33.8464 6.21659 35.3828 6.21659C36.9193 6.21659 38.4229 6.60177 39.7125 7.32569L64.8112 22.0829C65.8349 22.7217 66.6684 23.5624 67.2429 24.5358C67.8173 25.5091 68.1162 26.5869 68.1148 27.6802V43.7818C68.1148 44.6879 67.9089 45.5852 67.5089 46.4223C67.1088 47.2595 66.5224 48.0202 65.7832 48.6609C65.044 49.3017 64.1664 49.8099 63.2005 50.1567C62.2347 50.5035 61.1995 50.6819 60.1541 50.6819H16.8094C15.7639 50.6819 14.7288 50.5035 13.7629 50.1567C12.7971 49.8099 11.9195 49.3017 11.1802 48.6609C10.441 48.0202 9.85462 47.2595 9.45455 46.4223C9.05448 45.5852 8.84857 44.6879 8.84857 43.7818V28.4515C8.87059 28.0581 9.06639 27.6871 9.3954 27.4154C9.7244 27.1438 10.1614 26.9922 10.6158 26.9922C11.0702 26.9922 11.5072 27.1438 11.8362 27.4154C12.1652 27.6871 12.361 28.0581 12.383 28.4515V43.7854C12.3702 44.2958 12.4752 44.8034 12.6918 45.2782C12.9083 45.7531 13.2321 46.1856 13.6441 46.5506C14.0561 46.9155 14.548 47.2055 15.091 47.4034C15.634 47.6014 16.2172 47.7033 16.8063 47.7033C17.3953 47.7033 17.9785 47.6014 18.5215 47.4034C19.0645 47.2055 19.5564 46.9155 19.9684 46.5506C20.3804 46.1856 20.7042 45.7531 20.9207 45.2782C21.1373 44.8034 21.2423 44.2958 21.2295 43.7854V20.7836C21.2179 20.5762 21.255 20.3689 21.3386 20.1743C21.4221 19.9797 21.5504 19.8018 21.7157 19.6515C21.8809 19.5012 22.0797 19.3815 22.2999 19.2997C22.5201 19.2179 22.7571 19.1757 22.9967 19.1757C23.2363 19.1757 23.4734 19.2179 23.6936 19.2997C23.9138 19.3815 24.1125 19.5012 24.2778 19.6515C24.443 19.8018 24.5713 19.9797 24.6549 20.1743C24.7384 20.3689 24.7755 20.5762 24.7639 20.7836V43.7854C24.7512 44.2958 24.8561 44.8034 25.0727 45.2782C25.2892 45.7531 25.613 46.1856 26.025 46.5506C26.437 46.9155 26.9289 47.2055 27.472 47.4034C28.015 47.6014 28.5981 47.7033 29.1872 47.7033C29.7763 47.7033 30.3594 47.6014 30.9024 47.4034C31.4454 47.2055 31.9373 46.9155 32.3493 46.5506C32.7613 46.1856 33.0851 45.7531 33.3017 45.2782C33.5182 44.8034 33.6232 44.2958 33.6104 43.7854V13.1086C33.5988 12.9012 33.6359 12.6939 33.7195 12.4993C33.8031 12.3047 33.9314 12.1268 34.0966 11.9764C34.2618 11.8261 34.4606 11.7064 34.6808 11.6246C34.901 11.5428 35.1381 11.5007 35.3776 11.5007C35.6172 11.5007 35.8543 11.5428 36.0745 11.6246C36.2947 11.7064 36.4934 11.8261 36.6587 11.9764C36.8239 12.1268 36.9522 12.3047 37.0358 12.4993C37.1194 12.6939 37.1565 12.9012 37.1449 13.1086V43.7854C37.1321 44.2958 37.2371 44.8034 37.4536 45.2782C37.6702 45.7531 37.9939 46.1856 38.4059 46.5506C38.8179 46.9155 39.3099 47.2055 39.8529 47.4034C40.3959 47.6014 40.979 47.7033 41.5681 47.7033C42.1572 47.7033 42.7403 47.6014 43.2833 47.4034C43.8263 47.2055 44.3183 46.9155 44.7303 46.5506C45.1423 46.1856 45.466 45.7531 45.6826 45.2782C45.8992 44.8034 46.0041 44.2958 45.9914 43.7854V20.7836C46.0134 20.3902 46.2092 20.0192 46.5382 19.7476C46.8672 19.4759 47.3042 19.3244 47.7586 19.3244C48.213 19.3244 48.65 19.4759 48.979 19.7476C49.308 20.0192 49.5038 20.3902 49.5258 20.7836V43.7854C49.5258 44.2887 49.6402 44.7872 49.8624 45.2522C50.0846 45.7173 50.4104 46.1398 50.821 46.4957C51.2317 46.8517 51.7192 47.134 52.2557 47.3266C52.7922 47.5193 53.3673 47.6184 53.948 47.6184C54.5287 47.6184 55.1038 47.5193 55.6403 47.3266C56.1768 47.134 56.6643 46.8517 57.075 46.4957C57.4856 46.1398 57.8113 45.7173 58.0336 45.2522C58.2558 44.7872 58.3702 44.2887 58.3702 43.7854V27.6838C58.3922 27.2904 58.588 26.9194 58.917 26.6477C59.246 26.3761 59.683 26.2245 60.1374 26.2245C60.5918 26.2245 61.0288 26.3761 61.3578 26.6477C61.6868 26.9194 61.8826 27.2904 61.9046 27.6838V44.1692C61.9182 44.4665 62.064 44.7477 62.3115 44.9539C62.5589 45.16 62.8889 45.2752 63.2321 45.2752C63.5754 45.2752 63.9053 45.16 64.1528 44.9539C64.4002 44.7477 64.546 44.4665 64.5596 44.1692V27.6838C64.5346 26.6814 64.0575 25.7273 63.2307 25.026C62.4039 24.3248 61.2932 23.9321 60.1364 23.9321C58.9796 23.9321 57.8688 24.3248 57.042 25.026C56.2152 25.7273 55.7382 26.6814 55.7131 27.6838V43.7854C55.7247 43.9928 55.6876 44.2001 55.6041 44.3947C55.5205 44.5893 55.3922 44.7671 55.227 44.9175C55.0617 45.0678 54.863 45.1875 54.6428 45.2693C54.4226 45.3511 54.1855 45.3933 53.9459 45.3933C53.7063 45.3933 53.4693 45.3511 53.2491 45.2693C53.0289 45.1875 52.8301 45.0678 52.6649 44.9175C52.4996 44.7671 52.3713 44.5893 52.2878 44.3947C52.2042 44.2001 52.1671 43.9928 52.1787 43.7854V20.7836C52.1536 19.7812 51.6766 18.8271 50.8498 18.1259C50.023 17.4246 48.9122 17.0319 47.7555 17.0319C46.5987 17.0319 45.4879 17.4246 44.6611 18.1259C43.8343 18.8271 43.3573 19.7812 43.3322 20.7836V43.7854C43.3438 43.9928 43.3067 44.2001 43.2231 44.3947C43.1396 44.5893 43.0113 44.7671 42.846 44.9175C42.6808 45.0678 42.482 45.1875 42.2618 45.2693C42.0416 45.3511 41.8046 45.3933 41.565 45.3933C41.3254 45.3933 41.0884 45.3511 40.8681 45.2693C40.6479 45.1875 40.4492 45.0678 40.284 44.9175C40.1187 44.7671 39.9904 44.5893 39.9068 44.3947C39.8233 44.2001 39.7862 43.9928 39.7978 43.7854V13.1086C39.7978 12.092 39.3319 11.117 38.5025 10.3982C37.6732 9.67937 36.5484 9.27554 35.3756 9.27554C34.2027 9.27554 33.0779 9.67937 32.2486 10.3982C31.4193 11.117 30.9534 12.092 30.9534 13.1086H30.9638Z" fill="#FAF39E"/>
</svg>
