<svg width="35" height="34" viewBox="0 0 35 34" fill="none" xmlns="http://www.w3.org/2000/svg">
<g id="fi-rr-headset" clip-path="url(#clip0_3533_3433)">
<path id="Vector" d="M30.0374 17.3455V15.3597C30.0374 12.0311 28.7151 8.83878 26.3614 6.48508C24.0077 4.13138 20.8154 2.80908 17.4868 2.80908C14.1581 2.80908 10.9658 4.13138 8.61214 6.48508C6.25844 8.83878 4.93614 12.0311 4.93614 15.3597V17.3455C3.47352 17.9895 2.27653 19.1165 1.54555 20.5376C0.814577 21.9588 0.59399 23.588 0.92072 25.1523C1.24745 26.7167 2.10166 28.1214 3.34036 29.1312C4.57906 30.141 6.12704 30.6946 7.72517 30.6994C8.46487 30.6994 9.17427 30.4055 9.69732 29.8825C10.2204 29.3594 10.5142 28.65 10.5142 27.9103V19.5433C10.5142 18.8036 10.2204 18.0942 9.69732 17.5711C9.17427 17.0481 8.46487 16.7542 7.72517 16.7542V15.3597C7.72517 12.7708 8.75363 10.2879 10.5843 8.45722C12.4149 6.62656 14.8978 5.59811 17.4868 5.59811C20.0757 5.59811 22.5586 6.62656 24.3893 8.45722C26.2199 10.2879 27.2484 12.7708 27.2484 15.3597V16.7542C26.5087 16.7542 25.7993 17.0481 25.2762 17.5711C24.7532 18.0942 24.4594 18.8036 24.4594 19.5433V27.9103H20.2758C19.906 27.9103 19.5513 28.0573 19.2897 28.3188C19.0282 28.5803 18.8813 28.935 18.8813 29.3049C18.8813 29.6747 19.0282 30.0294 19.2897 30.2909C19.5513 30.5525 19.906 30.6994 20.2758 30.6994H27.2484C28.8465 30.6946 30.3945 30.141 31.6332 29.1312C32.8719 28.1214 33.7261 26.7167 34.0528 25.1523C34.3796 23.588 34.159 21.9588 33.428 20.5376C32.697 19.1165 31.5 17.9895 30.0374 17.3455ZM7.72517 27.9103C6.61563 27.9103 5.55153 27.4696 4.76696 26.685C3.9824 25.9004 3.54163 24.8363 3.54163 23.7268C3.54163 22.6173 3.9824 21.5532 4.76696 20.7686C5.55153 19.984 6.61563 19.5433 7.72517 19.5433V27.9103ZM27.2484 27.9103V19.5433C28.3579 19.5433 29.422 19.984 30.2066 20.7686C30.9912 21.5532 31.4319 22.6173 31.4319 23.7268C31.4319 24.8363 30.9912 25.9004 30.2066 26.685C29.422 27.4696 28.3579 27.9103 27.2484 27.9103Z" fill="#BB8E34"/>
</g>
<defs>
<clipPath id="clip0_3533_3433">
<rect width="33.4684" height="33.4684" fill="white" transform="translate(0.753906 0.0200195)"/>
</clipPath>
</defs>
</svg>
