<svg width="35" height="35" viewBox="0 0 35 35" fill="none" xmlns="http://www.w3.org/2000/svg">
<g id="fi-rr-envelope" clip-path="url(#clip0_3533_3443)">
<path id="Vector" d="M27.2497 2.37866H7.72648C5.87792 2.38088 4.1057 3.1162 2.79857 4.42333C1.49144 5.73046 0.756121 7.50267 0.753906 9.35124L0.753906 26.0854C0.756121 27.934 1.49144 29.7062 2.79857 31.0133C4.1057 32.3205 5.87792 33.0558 7.72648 33.058H27.2497C29.0982 33.0558 30.8705 32.3205 32.1776 31.0133C33.4847 29.7062 34.22 27.934 34.2223 26.0854V9.35124C34.22 7.50267 33.4847 5.73046 32.1776 4.42333C30.8705 3.1162 29.0982 2.38088 27.2497 2.37866ZM7.72648 5.16769H27.2497C28.0847 5.16933 28.9001 5.42082 29.591 5.88978C30.2819 6.35874 30.8166 7.02372 31.1264 7.79914L20.4472 18.4797C19.6613 19.2625 18.5973 19.702 17.4881 19.702C16.3789 19.702 15.3148 19.2625 14.5289 18.4797L3.84973 7.79914C4.15952 7.02372 4.69427 6.35874 5.38516 5.88978C6.07605 5.42082 6.89146 5.16933 7.72648 5.16769ZM27.2497 30.269H7.72648C6.61693 30.269 5.55283 29.8282 4.76827 29.0436C3.9837 28.2591 3.54294 27.195 3.54294 26.0854V11.443L12.5571 20.4516C13.866 21.7572 15.6393 22.4904 17.4881 22.4904C19.3369 22.4904 21.1102 21.7572 22.4191 20.4516L31.4332 11.443V26.0854C31.4332 27.195 30.9925 28.2591 30.2079 29.0436C29.4233 29.8282 28.3592 30.269 27.2497 30.269Z" fill="#BB8E34"/>
</g>
<defs>
<clipPath id="clip0_3533_3443">
<rect width="33.4684" height="33.4684" fill="white" transform="translate(0.753906 0.984131)"/>
</clipPath>
</defs>
</svg>
