<svg width="35" height="35" viewBox="0 0 35 35" fill="none" xmlns="http://www.w3.org/2000/svg">
<g id="fi-rr-marker" clip-path="url(#clip0_3533_3452)">
<path id="Vector" d="M17.4882 9.27856C16.385 9.27856 15.3065 9.60571 14.3892 10.2186C13.4719 10.8316 12.757 11.7027 12.3348 12.722C11.9126 13.7412 11.8021 14.8628 12.0173 15.9448C12.2326 17.0269 12.7638 18.0208 13.5439 18.8009C14.324 19.581 15.318 20.1123 16.4 20.3275C17.482 20.5427 18.6036 20.4323 19.6228 20.0101C20.6421 19.5879 21.5133 18.8729 22.1262 17.9556C22.7391 17.0383 23.0663 15.9599 23.0663 14.8566C23.0663 13.3772 22.4786 11.9584 21.4325 10.9123C20.3864 9.86625 18.9676 9.27856 17.4882 9.27856ZM17.4882 17.6457C16.9366 17.6457 16.3974 17.4821 15.9387 17.1756C15.4801 16.8692 15.1226 16.4336 14.9115 15.9239C14.7004 15.4143 14.6452 14.8535 14.7528 14.3125C14.8604 13.7715 15.126 13.2745 15.5161 12.8845C15.9061 12.4944 16.4031 12.2288 16.9441 12.1212C17.4851 12.0136 18.0459 12.0688 18.5555 12.2799C19.0652 12.491 19.5007 12.8485 19.8072 13.3071C20.1137 13.7658 20.2772 14.305 20.2772 14.8566C20.2772 15.5963 19.9834 16.3057 19.4604 16.8288C18.9373 17.3518 18.2279 17.6457 17.4882 17.6457Z" fill="#BB8E34"/>
<path id="Vector_2" d="M17.4886 34.3798C16.3144 34.3858 15.1558 34.1104 14.1098 33.5767C13.0639 33.0429 12.161 32.2663 11.4769 31.3119C6.16239 23.9809 3.4668 18.4698 3.4668 14.9305C3.4668 11.2117 4.94409 7.6452 7.5737 5.0156C10.2033 2.38599 13.7698 0.908691 17.4886 0.908691C21.2075 0.908691 24.774 2.38599 27.4036 5.0156C30.0332 7.6452 31.5105 11.2117 31.5105 14.9305C31.5105 18.4698 28.8149 23.9809 23.5004 31.3119C22.8163 32.2663 21.9134 33.0429 20.8675 33.5767C19.8215 34.1104 18.6629 34.3858 17.4886 34.3798ZM17.4886 3.95292C14.5775 3.95624 11.7865 5.11417 9.72799 7.17267C7.66948 9.23118 6.51156 12.0222 6.50823 14.9333C6.50823 17.7363 9.14805 22.9197 13.9396 29.5283C14.3464 30.0886 14.88 30.5446 15.4969 30.8591C16.1137 31.1735 16.7963 31.3374 17.4886 31.3374C18.181 31.3374 18.8636 31.1735 19.4804 30.8591C20.0973 30.5446 20.6309 30.0886 21.0377 29.5283C25.8292 22.9197 28.4691 17.7363 28.4691 14.9333C28.4657 12.0222 27.3078 9.23118 25.2493 7.17267C23.1908 5.11417 20.3998 3.95624 17.4886 3.95292Z" fill="#BB8E34"/>
</g>
<defs>
<clipPath id="clip0_3533_3452">
<rect width="33.4684" height="33.4684" fill="white" transform="translate(0.753906 0.911377)"/>
</clipPath>
</defs>
</svg>
